#!OML:ASF F:\VICON\USERDATA\INSTALL\Justin_Nancy\Justin_Nancy.ASF
:FULLY-SPECIFIED
:DEGREES
102
root -0.753654 16.7014 31.5578 -0.846731 -8.27941 1.71694
lowerback 14.7486 0.0402904 -1.92036
upperback 0.127163 -0.0475682 2.76477
thorax -8.15792 0.113011 4.06921
lowerneck -23.0481 -2.2248 -8.37064
upperneck 15.4269 -1.61296 6.34247
head 8.71068 -0.564229 3.3174
rclavicle -1.39149e-014 1.27222e-014
rhumerus -54.7932 6.83952 -91.2006
rradius 109.165
rwrist -12.8815
rhand -12.3153 28.1008
rfingers 7.12502
rthumb 13.7531 -1.42469
lclavicle -1.39149e-014 1.27222e-014
lhumerus -42.2639 -8.60496 93.9387
lradius 110.314
lwrist 26.814
lhand -17.9113 5.81051
lfingers 7.12502
lthumb 8.35596 35.6252
rfemur -27.6045 -0.519558 26.9434
rtibia 42.2858
rfoot -8.58981 -5.42904
rtoes 0.500332
lfemur 1.63987 2.16908 -22.3431
ltibia 87.8589
lfoot 18.5138 -4.3094
ltoes -10.8127
103
root -0.795896 16.609 32.0814 -0.55115 -8.519 0.700791
lowerback 14.8252 0.313011 -1.23676
upperback 0.305081 0.450251 3.03719
thorax -8.04772 0.328243 3.86346
lowerneck -23.7951 -2.42096 -8.40343
upperneck 15.641 -1.80019 6.28211
head 8.92595 -0.652098 3.28201
rclavicle -4.07509e-015 -1.98785e-014
rhumerus -52.7028 7.1981 -91.2291
rradius 108.763
rwrist -12.9548
rhand -12.8286 27.9017
rfingers 7.12502
rthumb 13.2584 -1.65663
lclavicle -4.07509e-015 -1.98785e-014
lhumerus -42.5238 -7.89996 94.0387
lradius 108.259
lwrist 27.56
lhand -16.7347 5.90634
lfingers 7.12502
lthumb 9.49132 35.6726
rfemur -26.681 1.49576 28.0294
rtibia 44.1374
rfoot -10.7281 -8.57309
rtoes 0.659504
lfemur -1.53673 3.21473 -19.8209
ltibia 91.6596
lfoot 17.1452 -4.99214
ltoes -11.306
104
root -0.83623 16.5799 32.6089 0.12638 -8.75907 -1.28631
lowerback 14.7631 0.484774 0.387585
upperback 0.318782 1.00039 3.61932
thorax -8.02437 0.542711 3.44463
lowerneck -24.2157 -2.57153 -8.50611
upperneck 15.7575 -1.9237 6.216
head 9.04791 -0.718959 3.2611
rclavicle 1.18277e-014 1.11319e-014
rhumerus -50.5246 7.78597 -91.0793
rradius 108.133
rwrist -12.4548
rhand -13.1516 27.5771
rfingers 7.12502
rthumb 12.9471 -2.00118
lclavicle 1.18277e-014 1.11319e-014
lhumerus -43.0325 -7.08153 94.2295
lradius 106.33
lwrist 28.1105
lhand -16.6816 6.3392
lfingers 7.12502
lthumb 9.54254 36.1031
rfemur -25.4171 3.49736 30.1083
rtibia 45.2168
rfoot -13.218 -10.7924
rtoes -0.171372
lfemur -5.27159 4.35176 -16.0443
ltibia 95.0587
lfoot 15.9386 -6.23835
ltoes -9.18978
105
root -0.855364 16.5138 33.1329 0.499769 -8.23874 -2.85731
lowerback 14.7619 0.346157 1.80449
upperback 0.332516 1.09277 4.07675
thorax -7.99932 0.541372 3.11101
lowerneck -24.165 -2.59203 -8.45395
upperneck 15.5064 -1.93256 6.06088
head 8.95053 -0.735765 3.19233
rclavicle -1.12313e-014 -3.02153e-014
rhumerus -47.6126 8.94522 -90.9398
rradius 106.441
rwrist -11.4038
rhand -14.0163 27.3154
rfingers 7.12502
rthumb 12.1134 -2.31396
lclavicle -1.12313e-014 -3.02153e-014
lhumerus -43.9156 -5.96465 94.3474
lradius 104.723
lwrist 28.4964
lhand -17.6088 6.87226
lfingers 7.12502
lthumb 8.64787 36.6751
rfemur -23.7413 4.06832 31.8091
rtibia 45.9152
rfoot -14.9324 -12.7565
rtoes -2.55793
lfemur -9.12365 4.5992 -13.2495
ltibia 98.2459
lfoot 14.7523 -7.39087
ltoes -8.55487
106
root -0.875812 16.4607 33.6639 0.376772 -7.29052 -2.73654
lowerback 14.8896 0.176112 1.57818
upperback 0.432305 0.831307 4.09251
thorax -7.95533 0.423607 3.31261
lowerneck -24.1438 -2.63136 -8.42111
upperneck 15.133 -1.96998 5.97787
head 8.81937 -0.757233 3.14657
rclavicle -4.83047e-014 -1.03368e-014
rhumerus -44.6803 10.2191 -90.7403
rradius 104.91
rwrist -9.56352
rhand -14.8311 26.7701
rfingers 7.12502
rthumb 11.3277 -2.90398
lclavicle -4.83047e-014 -1.03368e-014
lhumerus -44.717 -4.70461 94.3404
lradius 103.13
lwrist 28.813
lhand -18.4273 7.66872
lfingers 7.12502
lthumb 7.85792 37.5027
rfemur -21.5534 3.5526 31.7056
rtibia 46.2416
rfoot -16.0154 -14.4044
rtoes -4.21411
lfemur -12.7764 4.05019 -13.074
ltibia 100.78
lfoot 13.6062 -7.4227
ltoes -9.3692
